<svg height="689" viewBox="0 0 852.2 688.1" width="853" xmlns="http://www.w3.org/2000/svg"><path d="m5.1 42.4h842.1v640.7h-842.1z" fill="#f3f6e6"/><path d="m847.2 688.1h-842.1a4.951 4.951 0 0 1 -5-5v-640.7a4.951 4.951 0 0 1 5-5h842.1a4.951 4.951 0 0 1 5 5v640.7a4.951 4.951 0 0 1 -5 5zm-837.1-10h832.1v-630.7h-832.1z" fill="#383a48"/><path d="m5.1 5h842.1v166.5h-842.1z" fill="#f6e049"/><path d="m847.2 176.5h-842.1a4.951 4.951 0 0 1 -5-5v-166.5a4.951 4.951 0 0 1 5-5h842.1a4.951 4.951 0 0 1 5 5v166.5a4.951 4.951 0 0 1 -5 5zm-837.1-10h832.1v-156.5h-832.1z" fill="#383a48"/><path d="m5.1 171.5h120.3v122h-120.3z" fill="#f3f6e6"/><path d="m125.4 298.5h-120.3a4.951 4.951 0 0 1 -5-5v-122a4.951 4.951 0 0 1 5-5h120.3a4.951 4.951 0 0 1 5 5v122a5.015 5.015 0 0 1 -5 5zm-115.3-10h110.3v-112h-110.3z" fill="#383a48"/><path d="m65.2 361.7a60.2 60.2 0 0 0 60.2-60.2v-8h-120.3v8a60.176 60.176 0 0 0 60.1 60.2z" fill="#f3f6e6"/><path d="m65.2 366.7a65.276 65.276 0 0 1 -65.2-65.2v-8a4.951 4.951 0 0 1 5-5h120.3a4.951 4.951 0 0 1 5 5v8a65.126 65.126 0 0 1 -65.1 65.2zm-55.1-68.2v3a55.2 55.2 0 0 0 110.4 0v-3z" fill="#383a48"/><path d="m125.4 171.5h120.3v122h-120.3z" fill="#e0719e"/><path d="m245.7 298.5h-120.3a4.951 4.951 0 0 1 -5-5v-122a4.951 4.951 0 0 1 5-5h120.3a4.951 4.951 0 0 1 5 5v122a5.015 5.015 0 0 1 -5 5zm-115.3-10h110.3v-112h-110.3z" fill="#383a48"/><path d="m185.5 361.7a60.2 60.2 0 0 0 60.2-60.2v-8h-120.3v8a60.176 60.176 0 0 0 60.1 60.2z" fill="#e0719e"/><path d="m185.5 366.7a65.276 65.276 0 0 1 -65.2-65.2v-8a4.951 4.951 0 0 1 5-5h120.4a4.951 4.951 0 0 1 5 5v8a65.276 65.276 0 0 1 -65.2 65.2zm-55.1-68.2v3a55.2 55.2 0 0 0 110.4 0v-3z" fill="#383a48"/><path d="m245.7 171.5h120.3v122h-120.3z" fill="#f3f6e6"/><path d="m366 298.5h-120.3a4.951 4.951 0 0 1 -5-5v-122a4.951 4.951 0 0 1 5-5h120.3a4.951 4.951 0 0 1 5 5v122a4.951 4.951 0 0 1 -5 5zm-115.3-10h110.3v-112h-110.3z" fill="#383a48"/><path d="m305.8 361.7a60.2 60.2 0 0 0 60.2-60.2v-8h-120.3v8a60.176 60.176 0 0 0 60.1 60.2z" fill="#f3f6e6"/><path d="m305.8 366.7a65.276 65.276 0 0 1 -65.2-65.2v-8a4.951 4.951 0 0 1 5-5h120.3a4.951 4.951 0 0 1 5 5v8a65.126 65.126 0 0 1 -65.1 65.2zm-55.1-68.2v3a55.2 55.2 0 0 0 110.4 0v-3z" fill="#383a48"/><path d="m366 171.5h120.3v122h-120.3z" fill="#e0719e"/><path d="m486.3 298.5h-120.3a4.951 4.951 0 0 1 -5-5v-122a4.951 4.951 0 0 1 5-5h120.3a4.951 4.951 0 0 1 5 5v122a4.951 4.951 0 0 1 -5 5zm-115.3-10h110.3v-112h-110.3z" fill="#383a48"/><path d="m426.1 361.7a60.2 60.2 0 0 0 60.2-60.2v-8h-120.3v8a60.176 60.176 0 0 0 60.1 60.2z" fill="#e0719e"/><path d="m426.1 366.7a65.276 65.276 0 0 1 -65.2-65.2v-8a4.951 4.951 0 0 1 5-5h120.3a4.951 4.951 0 0 1 5 5v8a65.126 65.126 0 0 1 -65.1 65.2zm-55.1-68.2v3a55.2 55.2 0 1 0 110.4 0v-3z" fill="#383a48"/><path d="m486.3 171.5h120.3v122h-120.3z" fill="#f3f6e6"/><path d="m606.6 298.5h-120.3a4.951 4.951 0 0 1 -5-5v-122a4.951 4.951 0 0 1 5-5h120.3a4.951 4.951 0 0 1 5 5v122a4.951 4.951 0 0 1 -5 5zm-115.3-10h110.3v-112h-110.3z" fill="#383a48"/><path d="m546.4 361.7a60.2 60.2 0 0 0 60.2-60.2v-8h-120.3v8a60.176 60.176 0 0 0 60.1 60.2z" fill="#f3f6e6"/><path d="m546.4 366.7a65.276 65.276 0 0 1 -65.2-65.2v-8a4.951 4.951 0 0 1 5-5h120.3a4.951 4.951 0 0 1 5 5v8a65.126 65.126 0 0 1 -65.1 65.2zm-55.1-68.2v3a55.2 55.2 0 0 0 110.4 0v-3z" fill="#383a48"/><path d="m606.6 171.5h120.3v122h-120.3z" fill="#e0719e"/><path d="m726.9 298.5h-120.3a4.951 4.951 0 0 1 -5-5v-122a4.951 4.951 0 0 1 5-5h120.3a4.951 4.951 0 0 1 5 5v122a4.951 4.951 0 0 1 -5 5zm-115.3-10h110.3v-112h-110.3z" fill="#383a48"/><path d="m666.7 361.7a60.2 60.2 0 0 0 60.2-60.2v-8h-120.3v8a60.176 60.176 0 0 0 60.1 60.2z" fill="#e0719e"/><path d="m666.7 366.7a65.276 65.276 0 0 1 -65.2-65.2v-8a4.951 4.951 0 0 1 5-5h120.3a4.951 4.951 0 0 1 5 5v8a65.126 65.126 0 0 1 -65.1 65.2zm-55.1-68.2v3a55.2 55.2 0 0 0 110.4 0v-3z" fill="#383a48"/><path d="m726.9 171.5h120.3v122h-120.3z" fill="#f3f6e6"/><path d="m847.2 298.5h-120.3a4.951 4.951 0 0 1 -5-5v-122a4.951 4.951 0 0 1 5-5h120.3a4.951 4.951 0 0 1 5 5v122a4.951 4.951 0 0 1 -5 5zm-115.3-10h110.3v-112h-110.3z" fill="#383a48"/><path d="m787.1 361.7a60.2 60.2 0 0 0 60.2-60.2v-8h-120.3v8a60.048 60.048 0 0 0 60.1 60.2z" fill="#f3f6e6"/><path d="m787.1 366.7a65.276 65.276 0 0 1 -65.2-65.2v-8a4.951 4.951 0 0 1 5-5h120.3a4.951 4.951 0 0 1 5 5v8a65.254 65.254 0 0 1 -65.1 65.2zm-55.2-68.2v3a55.2 55.2 0 1 0 110.4 0v-3z" fill="#383a48"/><path d="m426.2 451.4h157.7v231.8h-157.7z" fill="#aac6fc"/><path d="m583.9 688.1h-157.7a4.951 4.951 0 0 1 -5-5v-231.7a4.951 4.951 0 0 1 5-5h157.7a4.951 4.951 0 0 1 5 5v231.8a4.93 4.93 0 0 1 -5 4.9zm-152.7-10h147.7v-221.7h-147.7z" fill="#383a48"/><path d="m268.1 451.4h157.9v231.8h-157.9z" fill="#aac6fc"/><path d="m426 688.1h-157.9a4.951 4.951 0 0 1 -5-5v-231.7a4.951 4.951 0 0 1 5-5h157.9a4.951 4.951 0 0 1 5 5v231.8a4.93 4.93 0 0 1 -5 4.9zm-152.9-10h147.9v-221.7h-147.9z" fill="#383a48"/><path d="m268.1 418.8h315.8v32.6h-315.8z" fill="#f6e049"/><path d="m583.9 456.4h-315.8a4.951 4.951 0 0 1 -5-5v-32.6a4.951 4.951 0 0 1 5-5h315.8a4.951 4.951 0 0 1 5 5v32.6a5.015 5.015 0 0 1 -5 5zm-310.8-10h305.8v-22.6h-305.8z" fill="#383a48"/></svg>