<svg height="183" viewBox="0 0 183 183" width="183" xmlns="http://www.w3.org/2000/svg"><circle cx="91.5" cy="91.5" fill="#f6e049" r="86.5"/><path d="m91.5 183a91.5 91.5 0 1 1 91.5-91.5 91.608 91.608 0 0 1 -91.5 91.5zm0-173.1a81.5 81.5 0 1 0 81.5 81.5 81.578 81.578 0 0 0 -81.5-81.5z" fill="#383a48"/><circle cx="91.5" cy="67.5" fill="#f3f6e6" r="22.6"/><path d="m91.5 95.1a27.6 27.6 0 1 1 27.6-27.6 27.655 27.655 0 0 1 -27.6 27.6zm0-45.1a17.6 17.6 0 1 0 17.6 17.6 17.626 17.626 0 0 0 -17.6-17.6z" fill="#383a48"/><path d="m127.1 134.1h-71v-8.5a35.508 35.508 0 0 1 35.5-35.5 35.508 35.508 0 0 1 35.5 35.5z" fill="#f3f6e6"/><path d="m127.1 139.1h-71a4.951 4.951 0 0 1 -5-5v-8.5a40.5 40.5 0 0 1 81 0v8.5a5.015 5.015 0 0 1 -5 5zm-66.1-10h61v-3.5a30.5 30.5 0 0 0 -61 0z" fill="#383a48"/></svg>