<svg xmlns="http://www.w3.org/2000/svg"  viewBox="0 0 512 512" width="64px" height="64px"><g data-name="19.FAQ"><rect width="136.717" height="52.158" x="11" y="356.368" fill="gray" rx="26.079" ry="26.079"/><circle cx="79.358" cy="301.839" r="47.416" fill="gray"/><path fill="#f5d367" d="M438.6738,103.4742h-243.72a62.3262,62.3262,0,0,0-62.3262,62.3263V249.816a62.164,62.164,0,0,0,21.4892,47.0617l-17.0462,33.0887c-5.26,10.21,5.6842,21.1549,15.8946,15.8956l65.4638-33.72H438.6738A62.3261,62.3261,0,0,0,501,249.816V165.8005A62.3262,62.3262,0,0,0,438.6738,103.4742Z"/><path fill="#f7f5fb" d="M176.9162,149.1027H212.318a10.1883,10.1883,0,0,1,10.1883,10.1882v.3031a10.1883,10.1883,0,0,1-10.1883,10.1882H192.3564a4.0887,4.0887,0,0,0-4.0887,4.0887v12.0476a4.0887,4.0887,0,0,0,4.0887,4.0887H212.318a10.1883,10.1883,0,0,1,10.1883,10.1882h0a10.1884,10.1884,0,0,1-10.1883,10.1883H192.3564a4.0887,4.0887,0,0,0-4.0887,4.0887V250a10.5291,10.5291,0,0,1-10.5291,10.5291h0A10.5291,10.5291,0,0,1,167.21,250V158.81A9.7068,9.7068,0,0,1,176.9162,149.1027Z"/><path fill="#f7f5fb" d="M286.1114,149.1027h0a15.6672,15.6672,0,0,1,14.6231,10.0432l33.6243,87.424a10.2721,10.2721,0,0,1-9.5875,13.96h0a10.2721,10.2721,0,0,1-9.6027-6.6246L310.521,241.67a6.345,6.345,0,0,0-5.9315-4.0919H267.8156a6.345,6.345,0,0,0-5.9014,4.0141l-4.913,12.4391a10.2721,10.2721,0,0,1-9.5539,6.4987h-.085a10.2721,10.2721,0,0,1-9.5842-13.9681l33.7151-87.4285A15.6675,15.6675,0,0,1,286.1114,149.1027Zm-2.7652,36.97L272.9556,212.66a3.1074,3.1074,0,0,0,2.8942,4.2385h20.7194a3.1074,3.1074,0,0,0,2.8965-4.2327l-10.3288-26.587A3.1074,3.1074,0,0,0,283.3462,186.0725Z"/><path fill="#f7f5fb" d="M453.6321,246.7168l5.0935,6.5844a9.9358,9.9358,0,0,1-7.8589,16.0152h0a9.9358,9.9358,0,0,1-7.8453-3.839l-4.9047-6.3113a3.8322,3.8322,0,0,0-4.6523-1.1509,56.3047,56.3047,0,0,1-24.5409,5.317q-25.1056,0-41.7153-17.3086a58.6544,58.6544,0,0,1,12.3826-91.8457A56.8023,56.8023,0,0,1,408.66,146.3q23.7245,0,40.7411,17.12t17.0175,41.7377q0,21.0327-12.6731,36.7079A3.8978,3.8978,0,0,0,453.6321,246.7168ZM434.91,222.5214a3.89,3.89,0,0,0,6.5794-.6889,38.7356,38.7356,0,0,0,3.7186-16.83,37.25,37.25,0,0,0-10.6925-26.8888A34.6459,34.6459,0,0,0,408.66,167.0552q-15.6217,0-26.1608,10.7564t-10.54,27.3454q0,18.4827,13.2787,29.2391a36.5051,36.5051,0,0,0,23.5968,8.4081,35.7282,35.7282,0,0,0,8.806-1.0732,3.8987,3.8987,0,0,0,2.1337-6.1661l-4.1664-5.3606a9.9358,9.9358,0,0,1,7.8449-16.0332h.122a9.9358,9.9358,0,0,1,7.8584,3.8559Z"/><path fill="#727171" d="M135.93,404.26a25.8905,25.8905,0,0,1-14.29,4.27H37.08a26.08,26.08,0,0,1,0-52.16h69.68A495.56,495.56,0,0,0,135.93,404.26Z"/><path fill="#727171" d="M100.51,344.29a47.4275,47.4275,0,1,1-34.02-88.1A496.0878,496.0878,0,0,0,100.51,344.29Z"/></g></svg>