<svg xmlns="http://www.w3.org/2000/svg" version="1.1" viewBox="0 0 3000 2000" width="3000" height="2000">
<defs/><!--ITEM: Illustration component 1--><g transform="translate(2642.5 150.0) rotate(0.0 -851.25 855.0)  scale(-1.2850996376811594 1.2842340370084708)"><svg width="1324.8" height="1331.533" viewBox="0.0 0.0 1324.8 1331.533"><path d="m485.2 231.433-192 121.3-88.9-69.3c-.1-.1-.2-.1-.3-.2a115.37 115.37 0 0 0 -30-17.3c-9.1-3.5-44.6-9.3-72.8-9.3h-81.9a19.248 19.248 0 0 0 -19.3 19.3 19.248 19.248 0 0 0 19.3 19.3 19.248 19.248 0 0 0 -19.3 19.3 19.248 19.248 0 0 0 19.3 19.3 19.248 19.248 0 0 0 -19.3 19.3 19.248 19.248 0 0 0 19.3 19.3 19.3 19.3 0 0 0 0 38.6h61.6l130.6 102a127.325 127.325 0 0 0 146.7 7.5l174.8-110.4z" fill="#fff6cc"/><path d="m332.6 385.633a2 2 0 0 1 -1.236-.428l-39.4-31a2 2 0 0 1 2.474-3.144l39.4 31a2 2 0 0 1 -1.238 3.572z" fill="#231e40"/><path d="m100.4 269.334a2 2 0 0 1 -1.809-1.145 16.9 16.9 0 0 0 -3.306-4.642 17.458 17.458 0 0 0 -12.185-5.014h-66.8a2 2 0 1 1 0-4h66.8a21.447 21.447 0 0 1 14.993 6.167 20.987 20.987 0 0 1 4.115 5.779 2 2 0 0 1 -1.807 2.857z" fill="#231e40"/><path d="m76 297.133h-59.7a2 2 0 0 1 0-4h59.7a2 2 0 0 1 0 4z" fill="#231e40"/><path d="m57.8 335.633h-41.5a2 2 0 0 1 0-4h41.5a2 2 0 1 1 0 4z" fill="#231e40"/><path d="m83 374.233h-66.8a2 2 0 1 1 0-4h66.8a17.32 17.32 0 0 0 17.3-17.3 17.109 17.109 0 0 0 -5.014-12.186 19.875 19.875 0 0 0 -2.086-1.814 2 2 0 1 1 2.4-3.2 23.878 23.878 0 0 1 2.514 2.186 21.078 21.078 0 0 1 6.186 15.014 21.324 21.324 0 0 1 -21.3 21.3z" fill="#231e40"/><path d="m83.1 412.833h-56.2a2 2 0 1 1 0-4h56.2a17.3 17.3 0 1 0 0-34.6h-63.8a2 2 0 0 1 0-4h63.8a21.3 21.3 0 1 1 0 42.6z" fill="#231e40"/><path d="m76 297.133h-56.7a2 2 0 0 1 0-4h56.7a2 2 0 0 1 0 4z" fill="#231e40"/><path d="m76.415 351.183a20.9 20.9 0 0 1 -17.6-32.124l25.1-39.5a40.019 40.019 0 0 1 33.785-18.526h6.6a2 2 0 1 1 0 4h-6.6a36.033 36.033 0 0 0 -30.417 16.68l-25.095 39.493a16.905 16.905 0 1 0 28.524 18.153l17-26.991a2 2 0 1 1 3.384 2.131l-17 27a20.919 20.919 0 0 1 -17.681 9.684z" fill="#231e40"/><path d="m136.093 329.006a35.025 35.025 0 0 1 -28.31-14.4 2 2 0 0 1 3.234-2.354 31.029 31.029 0 0 0 31.754 12.023 30.505 30.505 0 0 0 14.468-7.612 2 2 0 0 1 2.722 2.932 34.951 34.951 0 0 1 -23.868 9.407z" fill="#231e40"/><path d="m1246.4 106.933a21.324 21.324 0 0 0 -3.8-29.9l-1-.7a21.324 21.324 0 0 0 -29.9 3.8l-42.1 54.2 37.1-59.1a21.267 21.267 0 0 0 -6.7-29.4l-1-.6a21.267 21.267 0 0 0 -29.4 6.7l-36.2 57.7 26.9-61.6a21.346 21.346 0 0 0 -11-28.1l-1.1-.5a21.346 21.346 0 0 0 -28.1 11l-26.4 59.6 19.9-61.7a21.393 21.393 0 0 0 -13.8-26.9l-1.1-.4a21.393 21.393 0 0 0 -26.9 13.8l-18.8 58.2-1.7 3.2-5.2-26.8a21.411 21.411 0 0 0 -25-16.9l-1.2.2a21.411 21.411 0 0 0 -16.9 25l9.9 51c2.2 15.3-1.7 42.2-12 62.9l-29.9 56.6-185.9-26.9-9.8 176.8 204.6 29.6a127.319 127.319 0 0 0 130.9-66.6l85.2-161.3c7.7-14.5 16.6-29.5 26-41.6z" fill="#fff6cc"/><path d="m941.9 285.233a2 2 0 0 1 -1.766-2.935l29.2-55.2a2 2 0 1 1 3.536 1.87l-29.2 55.2a2 2 0 0 1 -1.77 1.065z" fill="#231e40"/><path d="m1055.9 101.434a2 2 0 0 1 -1.961-1.62l-8.5-43.8a2 2 0 1 1 3.926-.762l8.5 43.8a2 2 0 0 1 -1.582 2.345 2.1 2.1 0 0 1 -.383.037z" fill="#231e40"/><path d="m1092 146.433a2 2 0 0 1 -2-2 43.724 43.724 0 0 0 -34.418-42.544 2 2 0 0 1 .836-3.912 47.744 47.744 0 0 1 37.582 46.456 2 2 0 0 1 -2 2z" fill="#231e40"/><path d="m1183.6 142.033a1.992 1.992 0 0 1 -.973-.254l-103.5-57.8a2 2 0 1 1 1.95-3.492l103.5 57.8a2 2 0 0 1 -.977 3.746z" fill="#231e40"/><path d="m149.7 1314.033h341.5a11.368 11.368 0 0 0 11.2-9.3l14.8-78.4h-260.6s-72.7 38.1-107.2 74.6c-6.4 6.8-5.8 13.1.3 13.1z" fill="#231e40"/><path d="m263.5 1270.833a2 2 0 0 1 -1.626-.832l-23.8-33.1a2 2 0 0 1 3.248-2.335l23.8 33.1a2 2 0 0 1 -1.622 3.167z" fill="#fff"/><path d="m245.1 1284.033a2 2 0 0 1 -1.626-.833l-24.8-34.5a2 2 0 0 1 3.248-2.335l24.8 34.5a2 2 0 0 1 -1.622 3.168z" fill="#fff"/><path d="m497.2 1331.533h-352.4a2 2 0 1 1 0-4h352.4a2 2 0 1 1 0 4z" fill="#231e40"/><path d="m256.6 1226.333h260.7l22-116.2h-260.7z" fill="#fff6cc"/><path d="m1186.6 1184.233 119.8-336.8a8.62 8.62 0 0 0 -5-10.8l-74.2-28.1-87.4 245.6s11.5 81.3 34.3 126c4.3 8.3 10.5 9.9 12.5 4.1z" fill="#231e40"/><path d="m1143.1 1075.133a2 2 0 0 1 -.554-3.922l39.1-11.3a2 2 0 1 1 1.11 3.842l-39.1 11.3a1.986 1.986 0 0 1 -.556.08z" fill="#fff"/><path d="m1147.6 1097.434a2 2 0 0 1 -.553-3.922l40.9-11.8a2 2 0 0 1 1.108 3.843l-40.9 11.8a2.017 2.017 0 0 1 -.555.079z" fill="#fff"/><path d="m1199.6 1196.033a2 2 0 0 1 -1.885-2.671l123.2-346.2a2 2 0 0 1 3.768 1.34l-123.2 346.2a2 2 0 0 1 -1.883 1.331z" fill="#231e40"/><path d="m1139.8 1054.133 87.4-245.6-102.2-38.9-87.3 245.6z" fill="#fff6cc"/><path d="m919 698.433-69.7-270h-455.7l-145.7 708.2 340-2 29.5-422.2 10.4 69.4a200.646 200.646 0 0 0 128.1 158.2l292.1 109.3 105-297.2z" fill="#7b60c4"/><path d="m618.7 736.233a2 2 0 0 1 -1.975-1.7l-45.8-305.8a2 2 0 1 1 3.956-.593l45.8 305.8a2 2 0 0 1 -1.981 2.3z" fill="#fff"/><path d="m856 455.933h-467.6a2 2 0 0 1 0-4h467.6a2 2 0 0 1 0 4z" fill="#fff"/><path d="m827.2 745.434a2 2 0 0 1 -.882-3.8l91.8-45a2 2 0 1 1 1.76 3.592l-91.8 45a1.989 1.989 0 0 1 -.878.208z" fill="#fff"/><path d="m253.4 1112.133a2 2 0 0 1 0-4l336.3-.2a2 2 0 0 1 0 4z" fill="#fff"/><path d="m1024.1 1042.334a2.022 2.022 0 0 1 -.667-.115 2 2 0 0 1 -1.219-2.552l103.9-293.9a2 2 0 1 1 3.772 1.333l-103.9 293.9a2 2 0 0 1 -1.886 1.334z" fill="#fff"/><path d="m585.9 516.233h-11.7a23.831 23.831 0 0 1 -23.779-20.407l-10.1-67.1a2 2 0 0 1 3.955-.6l10.1 67.1a19.857 19.857 0 0 0 19.822 17h11.7a2 2 0 0 1 0 4z" fill="#fff"/><path d="m871.6 516.233h-33.9a53.034 53.034 0 0 1 -51.437-39.8l-12.3-47.495a2 2 0 1 1 3.872-1l12.3 47.5a49.036 49.036 0 0 0 47.564 36.8h33.9a2 2 0 1 1 0 4z" fill="#fff"/><path d="m849.4 428.433h-455.8s11.6-71.3 25.2-109.5c26.8-75.2 83.5-112 167.9-118 64.4-4.6 142.8-3.3 198.6.2-.89 33.23-4.96 82.89 13.4 136.46a2.413 2.413 0 0 0 .08.25c.45 1.3.92 2.61 1.4 3.93q2.82 7.785 6.32 15.66c6.82 15.34 19.64 23.74 26.63 27.39 2.1 1.08 3.68 1.74 4.41 2.03.3.12.46.18.46.18l.11.39 1.57 5.71.54 1.95z" fill="#fd7ce8"/><g fill="#fff"><path d="m474 400.233a1.992 1.992 0 0 1 -1.408-.58l-11.9-11.8a2 2 0 1 1 2.816-2.84l11.9 11.8a2 2 0 0 1 -1.408 3.42z"/><path d="m617.9 400.233a1.99 1.99 0 0 1 -1.414-.586l-11.8-11.8a2 2 0 0 1 2.828-2.828l11.8 11.8a2 2 0 0 1 -1.414 3.414z"/><path d="m541.9 400.233a1.992 1.992 0 0 1 -1.408-.58l-11.9-11.8a2 2 0 0 1 2.816-2.84l11.9 11.8a2 2 0 0 1 -1.408 3.421z"/><path d="m694 400.233a1.99 1.99 0 0 1 -1.414-.586l-11.8-11.8a2 2 0 0 1 2.828-2.828l11.8 11.8a2 2 0 0 1 -1.414 3.414z"/><path d="m770.1 400.233a1.992 1.992 0 0 1 -1.408-.58l-11.9-11.8a2 2 0 1 1 2.816-2.84l11.9 11.8a2 2 0 0 1 -1.408 3.421z"/><path d="m840.22 395.083-7.33-7.24a1.992 1.992 0 0 1 0-2.82 2.118 2.118 0 0 1 .24-.2c2.1 1.08 3.68 1.74 4.41 2.03.3.12.46.18.46.18l.11.39 1.57 5.71z"/><path d="m424.1 344.833a2 2 0 0 1 -1.408-3.42l11.9-11.8a2 2 0 1 1 2.816 2.841l-11.9 11.8a1.992 1.992 0 0 1 -1.408.579z"/><path d="m492 344.833a2 2 0 0 1 -1.414-3.414l11.8-11.8a2 2 0 0 1 2.828 2.828l-11.8 11.8a1.99 1.99 0 0 1 -1.414.586z"/><path d="m644.1 344.833a2 2 0 0 1 -1.408-3.42l11.9-11.8a2 2 0 1 1 2.817 2.84l-11.9 11.8a1.991 1.991 0 0 1 -1.409.58z"/><path d="m568.1 344.833a2 2 0 0 1 -1.414-3.414l11.8-11.8a2 2 0 0 1 2.828 2.828l-11.8 11.8a1.99 1.99 0 0 1 -1.414.586z"/><path d="m720.2 344.833a2 2 0 0 1 -1.414-3.414l11.8-11.8a2 2 0 0 1 2.828 2.828l-11.8 11.8a1.992 1.992 0 0 1 -1.414.586z"/><path d="m800.18 341.773-2.47 2.47a1.994 1.994 0 1 1 -2.82-2.82l3.81-3.83a2.413 2.413 0 0 0 .08.25c.45 1.3.92 2.61 1.4 3.93z"/><path d="m474 296.233a1.99 1.99 0 0 1 -1.414-.586l-11.9-11.9a2 2 0 0 1 2.828-2.828l11.9 11.9a2 2 0 0 1 -1.414 3.414z"/><path d="m617.9 296.233a1.99 1.99 0 0 1 -1.42-.592l-11.8-11.9a2 2 0 0 1 2.841-2.816l11.8 11.9a2 2 0 0 1 -1.42 3.408z"/><path d="m541.9 296.233a1.99 1.99 0 0 1 -1.414-.586l-11.9-11.9a2 2 0 1 1 2.828-2.828l11.9 11.9a2 2 0 0 1 -1.414 3.414z"/><path d="m694 296.233a1.989 1.989 0 0 1 -1.42-.592l-11.8-11.9a2 2 0 1 1 2.84-2.816l11.8 11.9a2 2 0 0 1 -1.42 3.408z"/><path d="m770.1 296.233a1.992 1.992 0 0 1 -1.414-.586l-11.9-11.9a2 2 0 0 1 2.828-2.828l11.9 11.9a2 2 0 0 1 -1.414 3.414z"/><path d="m492 240.733a2 2 0 0 1 -1.414-3.414l11.8-11.8a2 2 0 1 1 2.828 2.828l-11.8 11.8a1.99 1.99 0 0 1 -1.414.586z"/><path d="m644.1 240.733a2 2 0 0 1 -1.408-3.42l11.9-11.8a2 2 0 1 1 2.817 2.84l-11.9 11.8a1.991 1.991 0 0 1 -1.409.58z"/><path d="m568.1 240.733a2 2 0 0 1 -1.414-3.414l11.8-11.8a2 2 0 1 1 2.828 2.828l-11.8 11.8a1.99 1.99 0 0 1 -1.414.586z"/><path d="m720.2 240.733a2 2 0 0 1 -1.414-3.414l11.8-11.8a2 2 0 1 1 2.828 2.828l-11.8 11.8a1.992 1.992 0 0 1 -1.414.586z"/></g></svg></g><!--ITEM: Illustration component 2--><g transform="translate(2055.0 1860.0) rotate(0.0 -505.0 -448.75)  scale(-3.5537102846486754 -3.5456369899813533)"><svg width="284.21" height="253.128" viewBox="0.0 0.0 284.21 253.128"><path d="m45.451 253.128h-37.451a8 8 0 0 1 0-16h37.451c72.518 0 131.516-59 131.516-131.516v-31.989a73.706 73.706 0 0 1 73.623-73.623h25.62a8 8 0 0 1 0 16h-25.62a57.689 57.689 0 0 0 -57.623 57.623v31.989c0 81.341-66.175 147.516-147.516 147.516z" fill="rgb(227,217,252)"/></svg></g><!--ITEM: Illustration component 3--><g transform="translate(215.0 595.0) rotate(0.0 353.75 642.5) translate(0.0 0.0) scale(2.1138080214159376 2.115731326818747)"><svg width="334.704" height="596.7203793774319" viewBox="0.0 0.0 334.704 596.7203793774319"><path d="m293.547 541.645v-407.8a126.337 126.337 0 1 0 -252.674 0v406.885l.3.915a91.636 91.636 0 0 1 -33.673 58.21h319.7a91.615 91.615 0 0 1 -33.653-58.21zm-126.347-300.58a92.08 92.08 0 1 1 92.088-92.072 92.083 92.083 0 0 1 -92.088 92.072z" fill="rgb(227,217,252)"/><path d="m327.2 607.355h-319.7a7.5 7.5 0 0 1 -4.634-13.4 83.907 83.907 0 0 0 30.641-51.819 7.474 7.474 0 0 1 -.134-1.409v-406.882c0-73.803 60.036-133.845 133.827-133.845s133.847 60.042 133.847 133.845v407.247a83.868 83.868 0 0 0 30.792 52.866 7.5 7.5 0 0 1 -4.635 13.4zm-301.164-15h282.632a99.077 99.077 0 0 1 -22.543-49.633 7.452 7.452 0 0 1 -.078-1.077v-407.8a118.837 118.837 0 1 0 -237.674 0v405.7a7.508 7.508 0 0 1 .222 3.176 99.061 99.061 0 0 1 -22.555 49.634zm141.164-343.79a99.58 99.58 0 1 1 99.588-99.572 99.685 99.685 0 0 1 -99.588 99.572zm0-184.16a84.58 84.58 0 1 0 84.589 84.588 84.676 84.676 0 0 0 -84.589-84.588z" fill="rgb(227,217,252)"/><circle cx="167.21" cy="148.985" fill="rgb(255,255,255)" r="84.929"/></svg></g><!--ITEM: Illustration component 4--><g transform="translate(377.5 662.5) rotate(0.0 260.0 260.0) translate(137.5 147.5) scale(11.555555555555555 11.555555555555555)"><svg width="9.735576923076922" height="15.79326923076923" viewBox="11.899038461538462 12.764423076923077 9.735576923076922 15.79326923076923"><clipPath id="a-i4"><path d="m0 0h44.704v44.892h-44.704z" fill="#000000"/></clipPath><g clip-path="url(#a-i4)"><path d="m16.445 35.3243c6.9202 0 12.53-5.6717 12.53-12.668 0-6.9964-5.6098-12.66802-12.53-12.66802-6.92009 0-12.52996 5.67162-12.52996 12.66802 0 6.9963 5.60987 12.668 12.52996 12.668z" fill="#fff"/><g fill="rgb(227,217,252)"><path d="m18.0452 18.4993.151-4.046c.0034-.3641-.1335-.7155-.3822-.9814-.2488-.2659-.5903-.4258-.9538-.4466-.1824-.0096-.3647.0178-.5363.0803-.1715.0626-.3286.1592-.4619.2839-.1334.1247-.2402.2751-.314.4421-.0739.167-.1132.3471-.1158.5297l-.149 4c-1.027.2768-1.9216.911-2.5228 1.7884-.6013.8774-.8698 1.9405-.7573 2.9982s.5986 2.0405 1.371 2.7718 1.7803 1.1631 2.8425 1.2177c1.0623.0546 2.1092-.2715 2.9525-.9197.8432-.6483 1.4276-1.5761 1.648-2.6167.2204-1.0405.0623-2.1256-.4458-3.06-.5081-.9345-1.3329-1.657-2.3261-2.0377z"/><path d="m27.593 22.657c.0107 2.9726-1.156 5.8286-3.245 7.9435-2.0891 2.1149-4.9304 3.3166-7.903 3.3425-2.9744-.019-5.8195-1.2187-7.90953-3.3352-2.09002-2.1164-3.25383-4.9764-3.23547-7.9508-.00093-1.0124.13874-2.02.415-2.994.18007-.2566.27647-.5625.276-.876.87902-2.4867 2.61325-4.5801 4.8931-5.9064 2.2798-1.3262 4.9567-1.799 7.5529-1.334s4.9427 1.8377 6.6203 3.8728c1.6777 2.0352 2.5775 4.6004 2.5387 7.2376zm-27.593-12.338c.415 1.2 2.165 6.441 3.04 8.514-.3352 1.247-.50532 2.5327-.506 3.824.00044 3.4963 1.30286 6.8671 3.65335 9.4553s5.58065 4.2084 9.06065 4.5447c4.192 3.731 12.6 7.31 17.663 8.231l11.789-14.138c-3.916-1.7-11.26-5.191-14.393-7.909v-.23c.0143-3.1232-1.0157-6.1617-2.9263-8.6324s-4.5923-4.23184-7.6187-5.0036c-1.2864-2.92174-2.3941-5.91893-3.317-8.975z"/></g></g></svg></g><!--ITEM: Illustration component 5--><g transform="translate(537.5 1230.0) rotate(90.0 505.0 448.75) translate(0.0 305.0) scale(3.5537102846486754 3.5456369899813533)"><svg width="283.50650990099007" height="145.95402785515319" viewBox="0.0 86.02121448467966 283.50650990099007 145.95402785515319"><path d="m45.451 253.128h-37.451a8 8 0 0 1 0-16h37.451c72.518 0 131.516-59 131.516-131.516v-31.989a73.706 73.706 0 0 1 73.623-73.623h25.62a8 8 0 0 1 0 16h-25.62a57.689 57.689 0 0 0 -57.623 57.623v31.989c0 81.341-66.175 147.516-147.516 147.516z" fill="rgb(227,217,252)"/></svg></g><!--ITEM: Illustration component 6--><g transform="translate(1882.5 270.0) rotate(0.0 -55.0 55.0)  scale(-1.1518324607329844 1.1506276150627617)"><svg width="95.5" height="95.6" viewBox="0.0 0.0 95.5 95.6"><path d="m0 47.8a47.779 47.779 0 1 0 18.4-37.7 47.8 47.8 0 0 0 -18.4 37.7z" fill="#fff6cc"/><path d="m18.4 10.2a84.125 84.125 0 0 0 75.3 50.8 47.893 47.893 0 0 0 -46-60.9 47.067 47.067 0 0 0 -29.3 10.1z" fill="#231e40"/></svg></g><!--ITEM: Illustration component 7--><g transform="translate(1930.0 122.5) rotate(0.0 505.0 448.75) translate(0.0 555.0) scale(3.5537102846486754 3.5456369899813533)"><svg width="283.50650990099007" height="96.59759331476323" viewBox="0.0 156.53040668523676 283.50650990099007 96.59759331476323"><path d="m45.451 253.128h-37.451a8 8 0 0 1 0-16h37.451c72.518 0 131.516-59 131.516-131.516v-31.989a73.706 73.706 0 0 1 73.623-73.623h25.62a8 8 0 0 1 0 16h-25.62a57.689 57.689 0 0 0 -57.623 57.623v31.989c0 81.341-66.175 147.516-147.516 147.516z" fill="rgb(227,217,252)"/></svg></g><!--ITEM: Illustration component 8--><g transform="translate(2492.5 260.0) rotate(0.0 252.5 181.25) translate(0.0 0.0) scale(1.2527722236831007 1.2530635242714083)"><svg width="401.11042574257425" height="173.57460000000003" viewBox="0.0 0.0 401.11042574257425 173.57460000000003"><g fill="rgb(227,217,252)"><path d="m7.5 66.6v46.561a58.272 58.272 0 0 0 116.543 0v-46.561z"/><path d="m65.772 178.927a65.846 65.846 0 0 1 -65.772-65.771v-46.556a7.5 7.5 0 0 1 7.5-7.5h116.543a7.5 7.5 0 0 1 7.5 7.5v46.561a65.846 65.846 0 0 1 -65.771 65.766zm-50.772-104.827v39.061a50.772 50.772 0 0 0 101.543 0v-39.061z"/><path d="m37.082 89.239a15 15 0 0 1 -15-15v-59.239a15 15 0 0 1 30 0v59.239a15 15 0 0 1 -15 15z"/><path d="m94.461 89.239a15 15 0 0 1 -15-15v-59.239a15 15 0 0 1 30 0v59.239a15 15 0 0 1 -15 15z"/><path d="m159.234 289.316c-29.994 0-57.722-11.295-75.11-31.3-23.444-26.967-26.26-64.069-25.811-100.146a7.5 7.5 0 0 1 15 .186c-.413 33.113 1.987 66.944 22.131 90.123 17.52 20.152 48.062 29.705 79.708 24.936 15.814-2.385 41.533-8.881 82.128-37.641 3.849-2.726 7.758-5.582 11.539-8.344 16.456-12.021 33.472-24.452 53.152-32.064 22.682-8.771 55.183-11.4 78.379 7.541a7.5 7.5 0 0 1 -9.487 11.619c-11.941-9.75-34.888-16.228-63.481-5.169-17.838 6.9-33.322 18.21-49.715 30.186-3.824 2.793-7.778 5.682-11.716 8.471-43.2 30.607-71.235 37.62-88.562 40.233a121.885 121.885 0 0 1 -18.155 1.369z"/></g></svg></g><!--ITEM: Illustration component 9--><g transform="translate(470.0 1135.0) rotate(0.0 98.75 268.75)  scale(3.2747471397778143 3.2621229592765673)"><svg width="60.31" height="164.77" viewBox="0.0 0.0 60.31 164.77"><path d="m4.89 164.77 28.42-73.14h-33.31l55.42-91.63-28.42 73.15h33.31z" fill="rgb(255,242,61)"/></svg></g><!--ITEM: Illustration component 10--><g transform="translate(215.0 1710.0) rotate(0.0 296.25 23.75) translate(72.5 0.0) scale(1.1700236966824644 1.1418269230769231)"><svg width="444.43544303797466" height="28.463157894736838" viewBox="61.96455696202531 0.0 444.43544303797466 28.463157894736838"><g fill="rgb(255,255,255)"><path d="m373.5 4h-371.5a2 2 0 0 1 0-4h371.5a2 2 0 0 1 0 4z"/><path d="m504.4 41.6h-225a2 2 0 0 1 0-4h225a2 2 0 0 1 0 4z"/></g></svg></g><!--ITEM: Illustration component 11--><g transform="translate(452.5 1710.0) rotate(0.0 296.25 23.75) translate(0.0 0.0) scale(1.1700236966824644 1.1418269230769231)"><svg width="341.873417721519" height="28.463157894736838" viewBox="0.0 0.0 341.873417721519 28.463157894736838"><g fill="rgb(255,255,255)"><path d="m373.5 4h-371.5a2 2 0 0 1 0-4h371.5a2 2 0 0 1 0 4z"/><path d="m504.4 41.6h-225a2 2 0 0 1 0-4h225a2 2 0 0 1 0 4z"/></g></svg></g><!--ITEM: Illustration component 12--><g transform="translate(2605.0 150.0) rotate(-180.0 43.75 46.25)  scale(1.4180604174769869 1.412860852298763)"><svg width="61.704" height="65.47" viewBox="0.0 0.0 61.704 65.47"><g fill="rgb(255,242,61)"><path d="m1.97 10.67c-.9 0-1.7-.7-1.9-1.6-.3-1.1.4-2.2 1.5-2.5l27.8-6.5c1.1-.3 2.2.4 2.5 1.5s-.4 2.2-1.5 2.5l-27.8 6.5c-.3.1-.5.1-.6.1z"/><path d="m29.27 19.17c-.5 0-1.1-.2-1.4-.7-.8-.8-.7-2.1.1-2.9l8.1-7.5c.8-.8 2.1-.7 2.9.1s.7 2.1-.1 2.9l-8.1 7.5c-.4.5-.9.7-1.5.6z"/><path d="m38.17 65.47c-.1 0-.2 0-.3 0-1.1-.2-1.9-1.2-1.7-2.3l7.9-49.6c.2-1.1 1.2-1.9 2.4-1.7 1.1.2 1.9 1.2 1.7 2.3l-7.9 49.6c-.2 1-1.1 1.7-2.1 1.7z"/><path d="m59.67 43.27c-.9 0-1.8-.7-2-1.7l-4.8-26.1c-.2-1.1.5-2.2 1.6-2.4s2.2.5 2.4 1.6l4.8 26.1c.2 1.1-.5 2.2-1.6 2.4-.1.1-.3.1-.4.1z"/></g></svg></g><!--ITEM: Illustration component 13--><g transform="translate(2545.0 152.5) rotate(-180.0 -43.75 46.25)  scale(-1.4180604174769869 1.412860852298763)"><svg width="61.704" height="65.47" viewBox="0.0 0.0 61.704 65.47"><g fill="rgb(255,242,61)"><path d="m1.97 10.67c-.9 0-1.7-.7-1.9-1.6-.3-1.1.4-2.2 1.5-2.5l27.8-6.5c1.1-.3 2.2.4 2.5 1.5s-.4 2.2-1.5 2.5l-27.8 6.5c-.3.1-.5.1-.6.1z"/><path d="m29.27 19.17c-.5 0-1.1-.2-1.4-.7-.8-.8-.7-2.1.1-2.9l8.1-7.5c.8-.8 2.1-.7 2.9.1s.7 2.1-.1 2.9l-8.1 7.5c-.4.5-.9.7-1.5.6z"/><path d="m38.17 65.47c-.1 0-.2 0-.3 0-1.1-.2-1.9-1.2-1.7-2.3l7.9-49.6c.2-1.1 1.2-1.9 2.4-1.7 1.1.2 1.9 1.2 1.7 2.3l-7.9 49.6c-.2 1-1.1 1.7-2.1 1.7z"/><path d="m59.67 43.27c-.9 0-1.8-.7-2-1.7l-4.8-26.1c-.2-1.1.5-2.2 1.6-2.4s2.2.5 2.4 1.6l4.8 26.1c.2 1.1-.5 2.2-1.6 2.4-.1.1-.3.1-.4.1z"/></g></svg></g><!--ITEM: Illustration component 14--><g transform="translate(460.0 575.0) rotate(0.0 353.75 642.5) translate(0.0 1227.5) scale(2.1138080214159376 2.115731326818747)"><svg width="334.704" height="27.17736381322959" viewBox="0.0 580.1776361867704 334.704 27.17736381322959"><path d="m293.547 541.645v-407.8a126.337 126.337 0 1 0 -252.674 0v406.885l.3.915a91.636 91.636 0 0 1 -33.673 58.21h319.7a91.615 91.615 0 0 1 -33.653-58.21zm-126.347-300.58a92.08 92.08 0 1 1 92.088-92.072 92.083 92.083 0 0 1 -92.088 92.072z" fill="rgb(227,217,252)"/><path d="m327.2 607.355h-319.7a7.5 7.5 0 0 1 -4.634-13.4 83.907 83.907 0 0 0 30.641-51.819 7.474 7.474 0 0 1 -.134-1.409v-406.882c0-73.803 60.036-133.845 133.827-133.845s133.847 60.042 133.847 133.845v407.247a83.868 83.868 0 0 0 30.792 52.866 7.5 7.5 0 0 1 -4.635 13.4zm-301.164-15h282.632a99.077 99.077 0 0 1 -22.543-49.633 7.452 7.452 0 0 1 -.078-1.077v-407.8a118.837 118.837 0 1 0 -237.674 0v405.7a7.508 7.508 0 0 1 .222 3.176 99.061 99.061 0 0 1 -22.555 49.634zm141.164-343.79a99.58 99.58 0 1 1 99.588-99.572 99.685 99.685 0 0 1 -99.588 99.572zm0-184.16a84.58 84.58 0 1 0 84.589 84.588 84.676 84.676 0 0 0 -84.589-84.588z" fill="rgb(227,217,252)"/><circle cx="167.21" cy="148.985" fill="rgb(255,255,255)" r="84.929"/></svg></g><!--ITEM: Illustration component 15--><g transform="translate(1765.0 235.0) rotate(-10.520259942718102 80.0 36.25)  scale(3.5792581987383114 3.7232949876746093)"><svg width="44.702" height="19.472" viewBox="0.0 0.0 44.702 19.472"><g fill="rgb(123,96,196)"><path d="m14.505 0a14.505 14.505 0 0 1 14.505 14.505v3.553a0 0 0 0 1 0 0h-29.01a0 0 0 0 1 0 0v-3.553a14.505 14.505 0 0 1 14.505-14.505z"/><path d="m0 17.378h44.702v2.093h-44.702z"/></g></svg></g><!--ITEM: Illustration component 16--><g transform="translate(900.0 1757.5) rotate(0.0 -43.75 43.75)  scale(-0.9162303664921466 0.9152719665271967)"><svg width="95.5" height="95.6" viewBox="0.0 0.0 95.5 95.6"><path d="m0 47.8a47.779 47.779 0 1 0 18.4-37.7 47.8 47.8 0 0 0 -18.4 37.7z" fill="rgb(227,217,252)"/><path d="m18.4 10.2a84.125 84.125 0 0 0 75.3 50.8 47.893 47.893 0 0 0 -46-60.9 47.067 47.067 0 0 0 -29.3 10.1z" fill="rgb(227,217,252)"/></svg></g></svg>