<svg enable-background="new 0 0 297.9 187.655" height="188" viewBox="0 0 297.9 187.655" width="298" xmlns="http://www.w3.org/2000/svg"><path d="m185.44 115.118 2.215-27.816-20.604-4.906c-1.264-7.565-3.455-15.204-7.11-22.027l13.883-16.157-18.347-21.522-18.113 10.688c-6.158-4.689-13.354-8.061-20.624-10.506l-1.621-20.657-27.817-2.215-4.906 20.604c-7.565 1.264-15.204 3.455-22.027 7.11l-16.157-13.883-21.522 18.348 10.688 18.113c-4.689 6.158-8.061 13.354-10.506 20.624l-20.657 1.621-2.215 27.816 20.604 4.906c1.264 7.565 3.455 15.204 7.11 22.027l-13.883 16.157 18.348 21.522 18.113-10.688c6.158 4.689 13.354 8.061 20.624 10.506l1.621 20.657 27.816 2.215 4.906-20.604c7.565-1.264 15.204-3.455 22.027-7.11l16.193 13.419 21.022-17.921-10.688-18.113c4.689-6.158 8.061-13.354 10.506-20.624zm-94.565 15.798c-20.398-1.624-35.759-19.643-34.135-40.041s19.643-35.759 40.041-34.135 35.759 19.643 34.135 40.041-19.643 35.759-40.041 34.135z" fill="#66b0f0"/><path d="m297.9 69.913-.997-17.843-13.499-1.334c-1.455-4.692-3.505-9.35-6.414-13.364l7.415-11.452-13.502-12.074-10.572 8.347c-4.313-2.444-9.171-3.963-13.996-4.886l-2.813-12.969-17.842.995-1.334 13.499c-4.692 1.455-9.35 3.505-13.364 6.414l-11.452-7.415-12.074 13.502 8.347 10.572c-2.444 4.313-3.963 9.171-4.886 13.996l-12.969 2.813.997 17.843 13.499 1.334c1.455 4.692 3.505 9.35 6.414 13.364l-7.415 11.452 13.502 12.074 10.572-8.347c4.313 2.444 9.171 3.963 13.996 4.886l2.813 12.969 17.843-.997 1.334-13.499c4.692-1.455 9.35-3.505 13.364-6.414l11.435 7.118 11.793-13.188-8.347-10.572c2.444-4.313 3.963-9.171 4.886-13.996zm-58.648 18.191c-13.085.731-24.389-9.377-25.12-22.463-.731-13.085 9.377-24.389 22.463-25.12 13.085-.731 24.389 9.377 25.12 22.463.73 13.085-9.378 24.389-22.463 25.12z" fill="#ffcf2d"/><circle cx="237.923" cy="64.313" fill="#fff" r="40.609"/><g fill="#ffcf2d"><path d="m237.923 107.422c-23.771 0-43.109-19.339-43.109-43.109s19.339-43.109 43.109-43.109 43.109 19.339 43.109 43.109-19.339 43.109-43.109 43.109zm0-81.218c-21.014 0-38.109 17.096-38.109 38.109s17.096 38.109 38.109 38.109 38.109-17.096 38.109-38.109c0-21.014-17.095-38.109-38.109-38.109z"/><circle cx="237.923" cy="64.313" r="10.036"/><path d="m237.923 76.849c-6.912 0-12.535-5.624-12.535-12.536s5.623-12.536 12.535-12.536 12.536 5.624 12.536 12.536-5.624 12.536-12.536 12.536zm0-20.072c-4.155 0-7.535 3.381-7.535 7.536s3.38 7.536 7.535 7.536 7.536-3.381 7.536-7.536-3.381-7.536-7.536-7.536z"/></g></svg>